# xmcd
#
# Track frame offsets:
#   150
#   14967
#   30130
#   45420
#   62167
#   79572
#   92625
#   108542
#   123632
#   140427
#   154307
#   168505
#   186582
#   196292
#
# Disc length: 2889 seconds
#
# Revision: 0
# Processed by: cddbd v1.5.2PL0 Copyright (c) Steve Scherf et al.
# Submitted via: uFREEDB ActiveX Control 1.5
#
DISCID=bf0b470e
DTITLE=Galpão Crioulo Vol 7 - Galpão Crioulo Vol 7
DYEAR=1990
DGENRE=Country
TTITLE0=João Tatu - Gaúcho da Fronteira
TTITLE1=Baile de Fronteira - Rui Biriva
TTITLE2=Vanerão Lambada - Os filhos do Sul
TTITLE3=Ser gaúcho virou moda - Os 3 xirus
TTITLE4=Chasque do patrão - Grupo Minuano
TTITLE5=Tche, olha o ricardão - Tchê Barbaridade
TTITLE6=O Rio Grande tem tudo - Pedro Ernesto
TTITLE7=Tetinha - Oswaldir e Carlos Magrão
TTITLE8=Timbre de Galo - Pedro Ortaça
TTITLE9=Como é que eu tou nesse corpo - Mano Lima
TTITLE10=Parou por que? - Som Campeiro
TTITLE11=Fogo de Macho - João de Almeida Neto
TTITLE12=Pé na Estrada - Neto Fagundes
TTITLE13=A lenda do porto dos Aguateiros - Antonio Augusto 
EXTD=
EXTT0=
EXTT1=
EXTT2=
EXTT3=
EXTT4=
EXTT5=
EXTT6=
EXTT7=
EXTT8=
EXTT9=
EXTT10=
EXTT11=
EXTT12=
EXTT13=
PLAYORDER=
